<svg width="75" height="76" viewBox="0 0 75 76" fill="none" xmlns="http://www.w3.org/2000/svg">
<path d="M74.7123 8.51585C72.9123 9.41585 70.8123 9.71585 69.1123 9.61585C65.9123 9.41585 62.9123 7.61585 60.0123 5.91585C59.2123 5.41585 58.4123 4.91585 57.6123 4.51585C52.5123 1.71585 47.5123 0.215848 42.7123 0.0158483C37.1123 -0.184152 32.0123 1.51585 28.1123 4.71585C24.4123 4.11585 21.2123 3.11585 20.6123 1.21585C20.4123 0.615849 19.8123 0.315848 19.2123 0.515848C18.6123 0.715848 18.3123 1.31585 18.5123 1.91585C19.8123 6.11585 27.5123 7.21585 32.8123 7.41585C31.4123 8.81585 30.6123 10.7158 30.6123 12.8158C30.6123 16.8158 33.7123 20.0158 37.5123 20.4158C37.6123 20.4158 37.7123 20.4158 37.7123 20.4158C48.8123 20.4158 57.7123 29.4158 57.7123 40.4158C57.7123 46.5158 54.9123 52.1159 50.5123 55.7159C53.4123 51.6159 53.1123 46.2159 51.2123 44.0159C51.3123 43.0159 51.2123 41.0159 49.6123 41.7159C48.2123 42.3159 47.6123 42.5159 47.0123 41.6159C47.0123 41.5159 47.0123 41.5158 47.0123 41.4158C48.3123 40.0158 47.1123 38.3158 46.9123 38.3158C47.2123 39.4158 46.6123 40.0158 46.2123 40.3158C45.1123 38.5158 44.5123 37.5159 42.5123 36.5159C39.0123 34.8159 37.0123 35.1159 33.3123 37.2159C34.4123 35.5159 35.2123 33.2158 35.4123 30.3158C35.5123 29.7158 35.0123 29.1159 34.4123 29.1159C33.8123 29.0159 33.2123 29.5159 33.2123 30.1159C32.2123 40.3159 24.9123 40.6158 20.1123 40.8158C18.8123 40.9158 17.8123 40.9159 17.1123 41.1159C17.0123 41.1159 17.0123 41.1159 16.9123 41.1159C8.81228 41.7159 6.31228 35.7159 5.81228 34.2159C6.11228 33.6159 6.41228 33.1159 6.81228 32.7159C8.61228 30.3159 10.6123 28.0158 12.6123 25.7158C13.6123 24.6158 14.5123 23.5158 15.5123 22.3158L24.5123 11.6159C24.9123 11.1159 24.8123 10.4158 24.4123 10.0158C23.9123 9.61585 23.2123 9.71585 22.8123 10.1159L13.8123 20.8158C12.9123 21.9158 11.9123 23.0159 10.9123 24.1159C8.91228 26.4159 6.91228 28.7158 5.01228 31.2158C4.51228 31.8158 4.11228 32.5159 3.81228 33.2159C3.51228 33.7159 3.11228 34.4159 3.01228 34.5159C1.51228 35.4159 0.412281 37.4159 0.112281 39.0159C-0.387719 42.0159 0.812281 45.1159 3.11228 47.0159C4.61228 48.2159 6.61228 48.9158 8.51228 48.9158C9.51228 48.9158 10.6123 48.7158 11.5123 48.3158C12.0123 48.1158 12.4123 47.7159 13.4123 46.7159C14.6123 45.5159 16.3123 43.7159 17.7123 43.2159C18.1123 43.1159 19.1123 43.0159 20.1123 43.0159C23.0123 42.9159 27.7123 42.7159 31.2123 39.6159C34.7123 38.3159 38.3123 36.5159 41.2123 38.1159C43.4123 39.3159 44.3123 40.8158 45.3123 42.4158C46.3123 44.0158 47.4123 43.3158 49.1123 42.9158C49.9123 42.7158 49.2123 44.4159 49.3123 45.2159C51.8123 47.3159 51.0123 55.1159 45.8123 58.7159C43.3123 59.8159 40.5123 60.5159 37.6123 60.5159H35.3123C34.7123 60.5159 34.2123 61.0159 34.2123 61.6159C34.2123 62.2159 34.7123 62.7159 35.3123 62.7159H37.6123C49.9123 62.7159 59.9123 52.7158 59.9123 40.4158C59.9123 28.3158 50.1123 18.4159 38.1123 18.1159C35.1123 18.1159 32.7123 15.7158 32.7123 12.7158C32.7123 9.81585 35.1123 7.41585 38.0123 7.41585C56.0123 7.61585 70.7123 22.3158 70.7123 40.4158C70.7123 58.6158 55.9123 73.4158 37.7123 73.4158C37.7123 73.4158 37.7123 73.4158 37.6123 73.4158C36.4123 73.4158 35.5123 72.4159 35.5123 71.2159C35.5123 70.0159 36.5123 69.0159 37.6123 69.0159C37.6123 69.0159 37.6123 69.0159 37.7123 69.0159C53.5123 69.0159 66.3123 56.1158 66.3123 40.4158C66.3123 24.6158 53.4123 11.8158 37.7123 11.8158C37.1123 11.8158 36.6123 12.3158 36.6123 12.9158C36.6123 13.5158 37.1123 14.0158 37.7123 14.0158C52.3123 14.0158 64.1123 25.8158 64.1123 40.4158C64.1123 55.0158 52.3123 66.8158 37.7123 66.8158C37.6123 66.8158 37.6123 66.8158 37.5123 66.8158C35.2123 66.9158 33.3123 68.8159 33.3123 71.2159C33.3123 73.6159 35.2123 75.5159 37.5123 75.6159C37.6123 75.6159 37.6123 75.6159 37.7123 75.6159C57.1123 75.6159 73.0123 59.8158 73.0123 40.3158C73.0123 21.1158 57.5123 5.41585 38.3123 5.01585H38.2123H38.1123C38.0123 5.01585 37.8123 5.01585 37.7123 5.01585C35.9123 5.11585 33.7123 5.11585 31.5123 4.91585C34.6123 3.01585 38.5123 2.01585 42.6123 2.11585C47.0123 2.31585 51.7123 3.71585 56.5123 6.31585C57.3123 6.71585 58.1123 7.21585 58.9123 7.71585C62.0123 9.61585 65.2123 11.5158 69.0123 11.8158C69.3123 11.8158 69.7123 11.8158 70.0123 11.8158C71.7123 11.8158 73.3123 11.5158 74.7123 10.9158V8.51585V8.51585ZM11.9123 45.0159C11.5123 45.5159 10.9123 46.0159 10.8123 46.1159C8.81228 46.9159 6.31228 46.5159 4.61228 45.1159C2.91228 43.7159 2.01228 41.4159 2.41228 39.2159C2.61228 38.2159 3.31228 36.8158 4.11228 36.3158C4.21228 36.3158 4.21228 36.2159 4.31228 36.1159C5.51228 38.5159 8.21228 42.3159 13.8123 43.0159C13.1123 43.7159 12.4123 44.4159 11.9123 45.0159Z" fill="#FF8800"/>
<path d="M23.6113 20.0168C23.6113 20.7168 24.2113 21.3168 24.9113 21.3168C25.6113 21.3168 26.2113 20.7168 26.2113 20.0168C26.2113 19.3168 25.6113 18.7168 24.9113 18.7168C24.1113 18.8168 23.6113 19.3168 23.6113 20.0168Z" fill="#FF8800"/>
<path d="M45.4131 46.4155C46.1131 46.3155 46.6131 45.7155 46.5131 44.9155C46.4131 44.2155 45.8131 43.7155 45.0131 43.8155C44.3131 43.9155 43.8131 44.5155 43.9131 45.3155C44.1131 46.0155 44.7131 46.5155 45.4131 46.4155Z" fill="#FF8800"/>
</svg>
